HIERARCHY
ROOT Pelvis
{
	OFFSET -0.217368 -24.078917 2.858379
	CHANNELS 6 Xposition Yposition Zposition Zrotation Yrotation Xrotation 
	JOINT Left_hip
	{
		OFFSET 5.858135 -8.228005 -1.766408
		CHANNELS 3 Zrotation Yrotation Xrotation
		JOINT Left_knee
		{
			OFFSET 4.345143 -38.646942 0.803700
			CHANNELS 3 Zrotation Yrotation Xrotation
			JOINT Left_ankle
			{
				OFFSET -1.479033 -42.687447 -3.742800
				CHANNELS 3 Zrotation Yrotation Xrotation
				JOINT Left_foot
				{
					OFFSET 4.105436 -6.028605 12.204244
					CHANNELS 3 Zrotation Yrotation Xrotation
					End Site
					{
						OFFSET 0.000000 0.000000 0.000000
					}
				}
			}
		}
	}
	JOINT Right_hip
	{
		OFFSET -6.030973 -9.051328 -1.354253
		CHANNELS 3 Zrotation Yrotation Xrotation
		JOINT Right_knee
		{
			OFFSET -4.325663 -38.368790 -0.484304
			CHANNELS 3 Zrotation Yrotation Xrotation
			JOINT Right_ankle
			{
				OFFSET 1.905555 -42.004566 -3.456167
				CHANNELS 3 Zrotation Yrotation Xrotation
				JOINT Right_foot
				{
					OFFSET -3.483987 -6.210554 13.032330
					CHANNELS 3 Zrotation Yrotation Xrotation
					End Site
					{
						OFFSET 0.000000 0.000000 0.000000
					}
				}
			}
		}
	}
	JOINT Spine1
	{
		OFFSET 0.443945 12.440353 -3.838522
		CHANNELS 3 Zrotation Yrotation Xrotation
		JOINT Spine2
		{
			OFFSET 0.448844 13.795640 2.682033
			CHANNELS 3 Zrotation Yrotation Xrotation
			JOINT Spine3
			{
				OFFSET -0.226460 5.603239 0.285504
				CHANNELS 3 Zrotation Yrotation Xrotation
				JOINT Neck
				{
					OFFSET -1.339018 21.163553 -3.346758
					CHANNELS 3 Zrotation Yrotation Xrotation
					JOINT Head
					{
						OFFSET 1.011321 8.893734 5.040987
						CHANNELS 3 Zrotation Yrotation Xrotation
						End Site
						{
							OFFSET 0.000000 0.000000 0.000000
						}
					}
				}
				JOINT Left_collar
				{
					OFFSET 7.170247 11.399971 -1.889817
					CHANNELS 3 Zrotation Yrotation Xrotation
					JOINT Left_shoulder
					{
						OFFSET 12.292140 4.520507 -1.904600
						CHANNELS 3 Zrotation Yrotation Xrotation
						JOINT Left_elbow
						{
							OFFSET 25.533188 -1.564902 -2.294648
							CHANNELS 3 Zrotation Yrotation Xrotation
							JOINT Left_wrist
							{
								OFFSET 26.570929 1.269810 -0.737473
								CHANNELS 3 Zrotation Yrotation Xrotation
								JOINT Left_palm
								{
									OFFSET 8.669054 -1.063602 -1.559429
									CHANNELS 3 Zrotation Yrotation Xrotation
									End Site
									{
										OFFSET 0.000000 0.000000 0.000000
									}
								}
							}
						}
					}
				}
				JOINT Right_collar
				{
					OFFSET -8.295364 11.247234 -2.370738
					CHANNELS 3 Zrotation Yrotation Xrotation
					JOINT Right_shoulder
					{
						OFFSET -11.322830 4.685326 -0.847207
						CHANNELS 3 Zrotation Yrotation Xrotation
						JOINT Right_elbow
						{
							OFFSET -26.012751 -1.436928 -3.126872
							CHANNELS 3 Zrotation Yrotation Xrotation
							JOINT Right_wrist
							{
								OFFSET -26.910841 0.679372 -0.602677
								CHANNELS 3 Zrotation Yrotation Xrotation
								JOINT Right_palm
								{
									OFFSET -8.875370 -0.865157 -1.010708
									CHANNELS 3 Zrotation Yrotation Xrotation
									End Site
									{
										OFFSET 0.000000 0.000000 0.000000
									}
								}
							}
						}
					}
				}
			}
		}
	}
}
MOTION
Frames: 13
Frame Time: 0.016667
-0.121211 74.290504 1.989158 -0.146833 4.003466 -2.156060 7.165801 -0.304510 -7.642131 -3.999156 0.422770 -13.878262 46.187614 26.455373 108.153175 0.000000 0.000000 0.000000 -9.425052 0.296284 -4.483341 1.286086 -0.546209 -14.597126 -41.230992 -25.881957 115.203842 0.000000 0.000000 0.000000 2.521303 0.019322 -0.635258 -3.622869 1.378451 -38.334882 -0.329663 -0.863690 39.207859 -7.818610 4.581849 -69.098586 0.000000 0.000000 0.000000 -13.039018 0.953787 -1.775901 -37.309963 -18.058253 1.151710 -80.945596 25.299568 -23.715454 0.000000 0.000000 0.000000 0.000000 0.000000 0.000000 12.964600 -1.932231 -2.190758 36.757126 17.746173 1.786583 90.432606 -22.488848 -26.415944 0.000000 0.000000 0.000000 0.000000 0.000000 0.000000 
-0.114469 74.235283 1.932606 -0.411990 4.622930 -2.463848 7.074871 -0.304625 -7.476822 -4.132093 0.419857 -14.456334 46.151614 26.412312 108.275027 0.000000 0.000000 0.000000 -9.759214 0.287370 -4.240663 1.468411 -0.560305 -15.281448 -40.337087 -25.804908 114.894997 0.000000 0.000000 0.000000 2.628461 0.009479 -0.485040 -3.864157 1.408406 -38.093134 -0.517495 -0.593415 39.172027 -7.506212 4.560397 -69.205541 0.000000 0.000000 0.000000 -12.904704 -0.282492 -1.186043 -36.832965 -19.149986 1.443445 -80.350510 23.582286 -21.909996 0.000000 0.000000 0.000000 0.000000 0.000000 0.000000 13.898777 -0.889841 -1.807992 36.568080 18.280658 1.924179 90.019939 -20.701159 -24.373382 0.000000 0.000000 0.000000 0.000000 0.000000 0.000000 
-0.109084 74.071541 1.876624 -0.675587 5.001837 -2.140083 7.349902 -0.301233 -7.894083 -4.768348 0.408867 -14.484791 46.829014 26.502618 108.363630 0.000000 0.000000 0.000000 -9.735307 0.292201 -4.545184 1.571704 -0.558364 -15.317798 -40.930772 -25.858227 115.093941 0.000000 0.000000 0.000000 2.778042 0.015503 -0.586728 -3.831689 1.402793 -38.270259 -0.756497 -0.660064 39.214458 -7.343656 4.541231 -69.818962 0.000000 0.000000 0.000000 -13.137314 -0.821344 -0.958282 -36.715095 -19.009042 1.394113 -78.366711 22.876175 -20.553215 0.000000 0.000000 0.000000 0.000000 0.000000 0.000000 14.755661 -0.235126 -1.586123 36.727345 18.850252 2.101194 87.068593 -20.385280 -22.865570 0.000000 0.000000 0.000000 0.000000 0.000000 0.000000 
-0.114171 73.941597 1.837261 -0.915191 5.039580 -2.403499 7.651124 -0.283452 -7.870234 -4.884975 0.408891 -14.256571 45.686648 26.288632 108.420009 0.000000 0.000000 0.000000 -9.558186 0.295403 -4.560759 1.569783 -0.552913 -15.102086 -40.754360 -26.020077 114.382786 0.000000 0.000000 0.000000 2.769294 -0.003112 -0.299552 -3.639300 1.381061 -38.250112 -0.806694 -0.673731 39.565368 -6.782949 4.510677 -69.686053 0.000000 0.000000 0.000000 -13.280658 -1.833775 -0.496709 -37.199327 -18.617349 1.310729 -76.274796 22.263334 -19.300510 0.000000 0.000000 0.000000 0.000000 0.000000 0.000000 15.434447 0.678278 -1.205843 36.910052 18.854961 2.118870 82.260527 -19.897036 -20.612274 0.000000 0.000000 0.000000 0.000000 0.000000 0.000000 
-0.111686 73.946777 1.789204 -0.983852 4.768541 -2.177714 7.696578 -0.288496 -8.187196 -4.889102 0.412280 -13.869408 45.172659 26.003896 109.090020 0.000000 0.000000 0.000000 -9.725257 0.301821 -5.181421 1.600803 -0.548010 -14.940078 -40.863559 -25.942762 114.740095 0.000000 0.000000 0.000000 2.823170 -0.024972 0.030204 -3.460276 1.357320 -38.708628 -0.981156 -0.375128 39.456872 -6.120967 4.471936 -69.772742 0.000000 0.000000 0.000000 -13.815870 -2.445051 -0.252705 -37.949446 -17.340085 0.971892 -74.006989 23.357366 -19.448534 0.000000 0.000000 0.000000 0.000000 0.000000 0.000000 16.267144 0.920738 -1.165583 37.868327 18.189022 2.005876 76.239633 -22.128285 -20.426389 0.000000 0.000000 0.000000 0.000000 0.000000 0.000000 
-0.109897 73.913605 1.762038 -1.273023 4.591630 -1.857629 7.684367 -0.299631 -8.617411 -4.910475 0.415536 -13.483976 45.088313 25.957093 109.202247 0.000000 0.000000 0.000000 -9.858375 0.306519 -5.740145 1.395825 -0.555454 -15.027496 -39.547274 -25.849635 114.178753 0.000000 0.000000 0.000000 2.862288 -0.045374 0.335563 -3.355210 1.342548 -39.218163 -0.939863 -0.078926 39.347476 -5.937687 4.461911 -69.585914 0.000000 0.000000 0.000000 -14.016088 -2.439098 -0.271952 -38.889344 -16.252138 0.682555 -72.120503 26.714748 -21.488560 0.000000 0.000000 0.000000 0.000000 0.000000 0.000000 17.126170 0.686865 -1.369690 38.649564 16.845974 1.661352 70.182009 -24.462705 -20.108338 0.000000 0.000000 0.000000 0.000000 0.000000 0.000000 
-0.104436 73.932953 1.754802 -1.229129 4.111782 -1.569300 7.578059 -0.298319 -8.296799 -4.635884 0.412615 -14.265079 44.517169 25.938984 108.938861 0.000000 0.000000 0.000000 -9.839156 0.315550 -6.353760 1.373974 -0.546833 -14.690388 -39.787382 -26.140498 113.248490 0.000000 0.000000 0.000000 2.544790 -0.080294 0.946186 -3.157033 1.318236 -39.965289 -0.892574 0.218343 39.609644 -6.016160 4.465652 -69.862687 0.000000 0.000000 0.000000 -13.998227 -2.368982 -0.304042 -39.584595 -14.572887 0.181163 -71.455696 28.807975 -22.894102 0.000000 0.000000 0.000000 0.000000 0.000000 0.000000 17.225736 0.341943 -1.557834 40.114752 15.295002 1.271967 66.544123 -26.533090 -20.293469 0.000000 0.000000 0.000000 0.000000 0.000000 0.000000 
-0.115918 73.915382 1.752595 -1.341451 4.215742 -0.856121 7.619775 -0.305486 -8.688419 -4.624490 0.410877 -14.554491 44.725234 26.105636 108.483029 0.000000 0.000000 0.000000 -9.812765 0.329772 -7.301299 1.237096 -0.547942 -14.620553 -39.332548 -25.898083 113.838777 0.000000 0.000000 0.000000 2.402412 -0.053943 0.557109 -3.086937 1.309410 -40.446265 -0.932236 -0.059520 40.244946 -5.395474 4.433307 -71.061469 0.000000 0.000000 0.000000 -14.267394 -1.916765 -0.543935 -39.736955 -13.124416 -0.271463 -70.096067 32.412812 -25.152525 0.000000 0.000000 0.000000 0.000000 0.000000 0.000000 17.654407 -0.153578 -1.860588 40.183381 14.152664 0.913927 65.052155 -29.310857 -21.668409 0.000000 0.000000 0.000000 0.000000 0.000000 0.000000 
-0.116850 73.931915 1.771811 -1.524102 4.204189 -0.792988 7.561751 -0.308258 -8.651031 -4.345107 0.416636 -14.364373 45.445027 26.325065 108.156682 0.000000 0.000000 0.000000 -9.398530 0.343845 -7.143691 0.938377 -0.566189 -14.996811 -39.225340 -25.761276 114.287596 0.000000 0.000000 0.000000 2.363111 -0.060970 0.679974 -2.954190 1.296114 -40.709486 -0.626622 -0.331585 40.516621 -5.830951 4.452654 -71.499602 0.000000 0.000000 0.000000 -14.106700 -1.390421 -0.781933 -40.149283 -12.470462 -0.475020 -69.839303 35.043352 -27.086546 0.000000 0.000000 0.000000 0.000000 0.000000 0.000000 17.174129 -0.750085 -2.115175 40.620687 13.019512 0.570963 64.761368 -31.809943 -23.282469 0.000000 0.000000 0.000000 0.000000 0.000000 0.000000 
-0.126783 73.953651 1.776705 -1.349892 3.937378 -0.951013 7.313667 -0.319324 -8.478150 -4.132163 0.420479 -14.186239 45.815722 26.569516 107.554922 0.000000 0.000000 0.000000 -9.134243 0.350287 -6.946218 0.773603 -0.557978 -14.615668 -39.150340 -25.771469 114.194413 0.000000 0.000000 0.000000 2.109416 -0.073562 0.953391 -2.743133 1.276542 -40.793920 -0.282617 -0.321126 40.731504 -6.940351 4.506338 -70.884824 0.000000 0.000000 0.000000 -13.803577 -0.666449 -1.097669 -39.429181 -11.518088 -0.772946 -71.405420 36.275846 -28.823119 0.000000 0.000000 0.000000 0.000000 0.000000 0.000000 16.192597 -1.446236 -2.352631 41.248263 12.233109 0.336369 66.292198 -34.791789 -26.071263 0.000000 0.000000 0.000000 0.000000 0.000000 0.000000 
-0.142936 73.991272 1.763409 -1.296695 3.591551 -1.080303 7.151480 -0.323203 -8.262895 -3.684399 0.427987 -14.803498 47.145053 26.567185 108.331939 0.000000 0.000000 0.000000 -8.822497 0.365295 -7.090275 0.354461 -0.570154 -14.697916 -39.784046 -25.442149 115.890401 0.000000 0.000000 0.000000 1.793757 -0.073279 1.040726 -2.391568 1.244972 -41.087664 0.009846 -0.268657 41.254706 -8.172439 4.555921 -71.293931 0.000000 0.000000 0.000000 -13.143335 0.140135 -1.408370 -38.535423 -11.354618 -0.817330 -75.782479 38.707549 -33.151179 0.000000 0.000000 0.000000 0.000000 0.000000 0.000000 14.805919 -1.727843 -2.321452 41.570625 11.614422 0.142151 71.267551 -37.889737 -30.883567 0.000000 0.000000 0.000000 0.000000 0.000000 0.000000 
-0.166365 74.001762 1.734699 -1.450169 3.580349 -0.834053 6.935136 -0.344605 -8.534316 -3.245450 0.436356 -14.731887 46.801211 26.544899 108.210443 0.000000 0.000000 0.000000 -8.622275 0.373113 -7.091569 0.182066 -0.577884 -14.799368 -39.250997 -25.364710 115.834695 0.000000 0.000000 0.000000 1.796382 -0.063273 0.862532 -2.371370 1.243178 -41.089500 0.360363 -0.283906 41.005923 -8.957396 4.603793 -70.830721 0.000000 0.000000 0.000000 -11.657899 1.075415 -1.669847 -37.202998 -11.221842 -0.846377 -81.501881 39.700876 -37.371812 0.000000 0.000000 0.000000 0.000000 0.000000 0.000000 13.459379 -2.620036 -2.578125 41.206617 11.514903 0.102864 77.381711 -41.484640 -37.340861 0.000000 0.000000 0.000000 0.000000 0.000000 0.000000 
-0.193549 73.984100 1.682548 -1.103015 3.401842 -0.725816 6.760246 -0.349016 -8.331202 -3.544124 0.431082 -14.908294 47.796172 26.701200 108.266009 0.000000 0.000000 0.000000 -8.880486 0.362144 -7.049996 0.324438 -0.590232 -15.230762 -39.741876 -25.463507 115.781657 0.000000 0.000000 0.000000 1.729715 -0.051620 0.672535 -2.450040 1.250437 -41.241700 0.240550 -0.397841 41.627246 -9.451388 4.616217 -71.172023 0.000000 0.000000 0.000000 -10.722739 1.137575 -1.588142 -36.212201 -11.602773 -0.732412 -85.622588 39.905103 -40.151203 0.000000 0.000000 0.000000 0.000000 0.000000 0.000000 11.981933 -2.807837 -2.470283 40.483015 11.733430 0.158594 84.909957 -41.543687 -42.238906 0.000000 0.000000 0.000000 0.000000 0.000000 0.000000 
